<svg xmlns="http://www.w3.org/2000/svg" aria-hidden="true" style="position:absolute;width:0;height:0;overflow:hidden"><defs><symbol id="icon-send" viewBox="0 0 38 32"><path fill="#fff" d="M38.403-.001 0 18l12.273 3.787L31.202 6.999 16.804 23.186l.011.005-.014-.005v8.815l6.882-6.692L32.404 28 38.403-.002z" style="fill:var(--color1, #fff)"/></symbol><symbol id="icon-person" viewBox="0 0 32 32"><path fill="#4d5ae5" d="M16.003 16.003a5.334 5.334 0 1 0 0-10.668 5.334 5.334 0 1 0 0 10.668zm0 2.667c-3.562 0-10.669 1.787-10.669 5.334v1.334c0 .733.599 1.334 1.334 1.334h18.67c.733 0 1.334-.601 1.334-1.334v-1.334c0-3.547-7.109-5.334-10.669-5.334z" style="fill:var(--color2, #4d5ae5)"/></symbol><symbol id="icon-phone" viewBox="0 0 24 32"><path d="m19.637 18.488-2.451-.28a1.927 1.927 0 0 0-1.583.551l-1.775 1.775c-2.752-1.42-4.94-3.607-6.322-6.278l-.038-.081 1.787-1.785a1.912 1.912 0 0 0 .548-1.591l.001.009-.28-2.432a1.933 1.933 0 0 0-1.918-1.708H5.935c-1.091 0-1.997.907-1.929 1.997.511 8.241 7.102 14.822 15.333 15.334 1.091.067 1.997-.84 1.997-1.931v-1.68c0-.981-.739-1.789-1.69-1.899l-.009-.001z"/></symbol><symbol id="icon-email" viewBox="0 0 24 32"><path d="M20.003 8.001H4.002c-1.1 0-1.989.9-1.989 2l-.011 12.001c0 1.1.9 2 2 2h16.001c1.1 0 2-.9 2-2V10.001c0-1.1-.9-2-2-2zm-.4 4.25-7.07 4.419c-.151.094-.334.15-.531.15s-.38-.056-.535-.153l.004.002-7.07-4.419a.85.85 0 1 1 .902-1.438L12 15l6.7-4.191a.849.849 0 1 1 .903 1.437l-.004.002z"/></symbol></defs></svg>